<?xml version="1.0" standalone="no"?>
<!DOCTYPE svg PUBLIC "-//W3C//DTD SVG 20010904//EN"
 "http://www.w3.org/TR/2001/REC-SVG-20010904/DTD/svg10.dtd">
<svg version="1.0" xmlns="http://www.w3.org/2000/svg"
 width="512.000000pt" height="512.000000pt" viewBox="0 0 512.000000 512.000000"
 preserveAspectRatio="xMidYMid meet">
<metadata>
Created by potrace 1.11, written by Peter Selinger 2001-2013
</metadata>
<g transform="translate(0.000000,512.000000) scale(0.100000,-0.100000)"
fill="#000000" stroke="none">
<path d="M3330 5108 c-80 -13 -179 -66 -236 -126 -66 -68 -117 -177 -126 -267
-2 -23 -8 -30 -23 -28 -101 9 -134 16 -129 25 3 5 -6 22 -20 37 -24 25 -35 28
-104 31 -373 13 -678 -32 -1012 -152 -211 -75 -547 -260 -677 -372 -7 -6 -18
-15 -25 -21 -168 -129 -350 -319 -506 -530 -82 -110 -216 -356 -276 -505 -30
-73 -28 -110 8 -137 l23 -17 -26 -79 c-23 -70 -28 -78 -48 -74 -26 5 -72 -29
-78 -58 -2 -11 -10 -51 -18 -90 -9 -38 -18 -88 -21 -110 -4 -22 -9 -53 -11
-70 -17 -99 -31 -444 -21 -499 12 -63 69 -106 139 -106 l32 0 0 -155 0 -155
-32 -15 c-18 -9 -49 -33 -69 -53 -69 -71 -67 -59 -69 -547 -2 -486 -1 -491 60
-562 100 -117 302 -106 384 20 l24 37 78 0 77 0 3 -118 c4 -109 6 -122 36
-183 58 -117 164 -199 279 -217 27 -5 123 -7 214 -7 140 1 170 4 200 20 46 24
85 70 99 115 8 26 11 297 11 889 0 746 -2 856 -15 889 -20 48 -50 79 -100 104
-35 18 -58 21 -215 21 -180 0 -231 -8 -304 -45 -65 -33 -134 -106 -168 -177
-30 -60 -33 -76 -36 -183 -4 -101 -7 -118 -21 -119 -82 -6 -136 1 -148 18 -29
40 -67 75 -102 92 l-36 19 0 156 0 156 33 0 c52 0 101 28 121 69 15 30 19 70
24 231 3 107 9 211 12 230 46 276 94 431 195 637 110 226 211 366 399 554 208
208 414 345 687 457 97 40 322 103 414 117 25 3 56 8 70 10 113 16 259 22 412
15 70 -3 118 15 118 45 0 24 18 27 88 15 l68 -11 -1 -352 c0 -194 3 -377 8
-407 10 -72 65 -184 117 -238 55 -57 102 -87 180 -115 l65 -23 1 -166 c2 -185
10 -214 70 -243 86 -41 109 -24 327 229 10 12 44 50 75 85 31 35 61 70 65 77
6 11 66 14 302 14 l295 0 33 -72 34 -73 -23 -23 c-31 -30 -30 -51 6 -162 16
-50 32 -101 34 -113 3 -12 8 -33 11 -47 37 -158 53 -306 56 -511 1 -115 4
-141 20 -165 24 -37 74 -64 119 -64 l35 0 0 -155 0 -155 -32 -17 c-40 -22 -72
-51 -99 -87 -19 -26 -26 -29 -80 -28 -103 0 -94 -10 -94 100 0 106 -14 167
-55 236 -52 89 -162 166 -260 182 -22 4 -114 7 -205 7 -179 -1 -215 -9 -267
-65 -54 -57 -53 -49 -53 -713 l0 -616 25 -24 c13 -14 30 -25 37 -25 19 0 17
-162 -2 -168 -8 -3 -24 -15 -37 -28 -21 -21 -23 -32 -23 -132 0 -75 5 -121 15
-146 19 -46 77 -98 123 -111 41 -12 373 -13 412 -1 108 32 202 111 252 214 29
59 32 74 36 183 l4 119 79 0 c44 0 79 -3 79 -7 0 -5 17 -27 38 -50 120 -135
337 -99 410 67 23 52 27 882 4 952 -16 52 -74 118 -121 139 -16 7 -31 20 -33
29 -2 8 -4 78 -3 155 l0 140 38 3 c53 5 99 32 120 73 16 31 18 54 13 239 -3
113 -7 214 -10 226 -2 11 -7 45 -10 75 -3 30 -8 65 -11 79 -66 340 -105 440
-168 440 -18 0 -26 11 -40 53 -31 87 -31 86 -11 94 33 12 121 81 153 120 17
21 41 57 52 81 45 92 48 125 49 537 l0 391 -22 21 c-13 11 -30 22 -38 25 -20
6 -23 168 -2 168 7 0 25 12 39 26 24 24 25 30 20 98 -4 40 -11 86 -17 102 -53
145 -167 254 -310 295 -35 10 -205 13 -730 14 -377 0 -705 -3 -730 -7z"/>
</g>
</svg>
